<svg version="1.1" id="Layer_1" xmlns="http://www.w3.org/2000/svg" xmlns:xlink="http://www.w3.org/1999/xlink" x="0px" y="0px"
	 width="100%" viewBox="0 0 623 195" enable-background="new 0 0 623 195" xml:space="preserve">
<path fill="#FCFCFC" opacity="1.000000" stroke="none" 
	d="
M514.000000,196.000000 
	C342.666656,196.000000 171.833328,196.000000 1.000000,196.000000 
	C1.000000,131.000000 1.000000,66.000000 1.000000,1.000000 
	C208.666672,1.000000 416.333344,1.000000 624.000000,1.000000 
	C624.000000,66.000000 624.000000,131.000000 624.000000,196.000000 
	C587.500000,196.000000 551.000000,196.000000 514.000000,196.000000 
M184.497864,37.997540 
	C158.165710,37.997608 131.833542,37.976551 105.501434,38.011078 
	C97.953354,38.020977 93.070541,42.284405 93.047493,49.312943 
	C92.945862,80.311218 92.951035,111.310188 93.044395,142.308517 
	C93.064812,149.087967 97.322990,152.997467 104.048248,152.999084 
	C135.213547,153.006592 166.378830,153.003098 197.544128,153.001999 
	C206.125549,153.001694 209.818390,149.290115 209.855164,140.507141 
	C209.896301,130.674423 209.864746,120.841385 209.864624,111.008484 
	C209.864380,90.842705 209.907333,70.676788 209.842133,50.511215 
	C209.816360,42.537407 205.349976,38.107910 197.495789,38.006878 
	C193.496643,37.955433 189.496262,37.997654 184.497864,37.997540 
M552.967285,65.740875 
	C550.885925,65.367706 548.804565,64.994530 546.236023,64.534012 
	C546.236023,69.876579 546.236023,74.345284 546.236023,78.813988 
	C546.236023,83.397972 546.236023,87.981956 546.236023,92.921707 
	C535.971619,85.260094 524.834656,85.670128 517.637146,93.583755 
	C511.040894,100.836281 510.956268,114.172386 517.458862,121.667282 
	C524.460938,129.737869 535.760742,130.351898 545.849426,123.043510 
	C546.148560,124.449692 546.427063,125.758858 546.670288,126.902496 
	C548.952515,126.902496 550.866943,126.902496 553.011169,126.902496 
	C553.011169,106.645348 553.011169,86.673134 552.967285,65.740875 
M476.297089,116.759033 
	C475.556366,114.900169 474.815613,113.041306 473.726410,110.308090 
	C484.996948,110.308090 495.201416,110.308090 505.376801,110.308090 
	C505.400482,96.300423 500.243500,88.976494 489.646729,87.364319 
	C480.155609,85.920357 470.361237,91.658562 467.361542,100.420509 
	C463.950012,110.385368 467.898376,121.423439 476.476410,125.902267 
	C485.727478,130.732529 497.391602,128.315735 503.470917,120.057343 
	C501.798645,118.778252 500.118958,117.493507 498.465057,116.228477 
	C489.080811,123.574730 484.218903,123.802162 476.297089,116.759033 
M242.285034,125.370667 
	C250.392395,129.826431 258.279114,129.221344 265.686798,123.917175 
	C272.411407,119.102135 275.101990,112.282837 273.494843,104.233742 
	C271.745728,95.473503 266.337006,89.742180 257.509186,87.663071 
	C248.354202,85.506920 238.301575,90.463524 234.123581,99.011230 
	C229.836639,107.781784 232.779099,117.960159 242.285034,125.370667 
M283.165344,104.488205 
	C283.166718,107.321121 283.111481,110.155426 283.180969,112.986671 
	C283.333618,119.205147 285.101746,124.699677 291.485931,127.036446 
	C297.844177,129.363724 303.928101,128.807159 308.948273,123.579155 
	C309.221741,123.294380 309.704559,123.210632 310.248871,122.960159 
	C310.503265,124.430809 310.722168,125.696327 310.957794,127.058495 
	C313.287292,127.058495 315.418945,127.058495 317.680176,127.058495 
	C317.680176,114.058792 317.680176,101.169968 317.680176,88.383316 
	C315.221436,88.383316 313.113708,88.383316 310.591980,88.383316 
	C310.591980,91.259323 310.638489,93.905197 310.582123,96.548874 
	C310.472168,101.706879 310.639069,106.900536 310.075226,112.011459 
	C309.392029,118.204674 305.011841,121.658836 299.202209,121.325272 
	C293.787903,121.014404 290.918579,117.562782 290.855530,111.035835 
	C290.783508,103.577179 290.838867,96.117294 290.838867,88.402237 
	C288.131104,88.402237 285.901123,88.402237 283.165375,88.402237 
	C283.165375,93.578598 283.165375,98.537132 283.165344,104.488205 
M381.130524,68.729874 
	C381.241974,67.329857 381.353424,65.929832 381.460358,64.586754 
	C368.347900,62.213627 363.067993,66.481621 362.856323,79.154053 
	C362.807465,82.077805 362.849091,85.003059 362.849091,87.947891 
	C359.590332,88.123024 357.007385,88.261833 354.183289,88.413597 
	C354.292297,90.670990 354.376587,92.416656 354.469940,94.349724 
	C357.437378,94.496162 360.000366,94.622643 362.987122,94.770027 
	C362.987122,105.834412 362.987122,116.400612 362.987122,126.972961 
	C365.542633,126.972961 367.634460,126.972961 370.161865,126.972961 
	C370.161865,116.195122 370.161865,105.619484 370.161865,94.791779 
	C373.330383,94.614685 376.079010,94.461067 378.933167,94.301552 
	C378.933167,92.203781 378.933167,90.418007 378.933167,88.379700 
	C376.012177,88.211288 373.249023,88.051971 370.401428,87.887787 
	C370.401428,83.985695 370.125031,80.318138 370.466827,76.709129 
	C370.967194,71.426163 373.117310,69.977745 378.462433,70.424118 
	C379.294220,70.493584 380.186707,69.836334 381.130524,68.729874 
M333.893433,124.394157 
	C337.313232,125.667732 340.664825,127.742424 344.167694,128.040833 
	C350.594971,128.588379 351.171112,127.497276 350.063049,120.818817 
	C348.445587,120.976036 346.593506,121.691887 345.228119,121.159470 
	C343.321045,120.415825 340.396240,118.828720 340.307922,117.448830 
	C339.825348,109.910332 340.078125,102.324753 340.078125,94.430565 
	C343.604309,94.430565 346.712189,94.430565 349.962891,94.430565 
	C349.962891,92.175346 349.962891,90.261200 349.962891,87.911438 
	C346.428406,87.911438 343.178589,87.911438 339.598877,87.911438 
	C339.598877,84.197655 339.598877,80.920212 339.598877,77.385933 
	C337.021332,77.385933 334.792236,77.385933 332.073639,77.385933 
	C332.073639,80.979660 332.073639,84.387962 332.073639,87.914108 
	C329.033722,88.076370 326.470398,88.213188 323.969421,88.346680 
	C323.969421,90.626930 323.969421,92.509995 323.969421,94.710052 
	C326.816010,94.710052 329.254028,94.710052 332.062439,94.710052 
	C332.062439,97.500816 331.941528,99.978828 332.085358,102.441376 
	C332.499786,109.536911 333.021027,116.626221 333.893433,124.394157 
M417.754883,111.346809 
	C417.754883,105.901131 417.754883,100.455452 417.754883,94.512360 
	C421.459595,94.512360 424.689056,94.512360 427.938141,94.512360 
	C427.938141,92.092613 427.938141,90.183235 427.938141,87.843933 
	C424.365326,87.843933 421.116760,87.843933 417.547272,87.843933 
	C417.547272,84.129128 417.547272,80.846634 417.547272,77.380936 
	C414.977448,77.380936 412.747925,77.380936 410.034729,77.380936 
	C410.034729,81.037224 410.034729,84.442589 410.034729,88.307251 
	C406.998413,88.307251 404.441742,88.307251 401.997620,88.307251 
	C401.997620,90.665413 401.997620,92.543297 401.997620,94.746765 
	C404.862213,94.746765 407.294891,94.746765 410.088715,94.746765 
	C410.088715,102.204643 409.978973,109.334396 410.116486,116.459373 
	C410.288544,125.372009 413.502350,128.356430 422.394135,128.214447 
	C428.846100,128.111420 429.490814,127.261932 427.939362,120.908020 
	C418.576294,121.606972 418.055084,121.166458 417.754883,111.346809 
M450.564606,94.552902 
	C453.306702,94.552902 456.048767,94.552902 459.036896,94.552902 
	C458.919098,91.990555 458.838409,90.235451 458.739258,88.078873 
	C455.137146,88.078873 451.876068,88.078873 448.096405,88.078873 
	C448.096405,84.274986 448.096405,80.865707 448.096405,77.369736 
	C445.483398,77.369736 443.401001,77.369736 440.815430,77.369736 
	C440.815430,80.998421 440.815430,84.408447 440.815430,87.945457 
	C437.713470,88.096123 435.107849,88.222687 432.305847,88.358780 
	C432.305847,90.420967 432.305847,92.198158 432.305847,94.257530 
	C435.088348,94.458153 437.818878,94.655022 440.863647,94.874550 
	C440.863647,102.209412 440.782196,109.188667 440.909973,116.164093 
	C440.951965,118.457024 441.166840,120.875641 441.947632,122.999680 
	C443.631256,127.579582 450.874664,130.132904 456.669952,127.678810 
	C458.316559,126.981522 458.825043,123.596573 460.189636,120.746170 
	C449.310516,121.701767 448.210632,120.694031 448.178284,111.344940 
	C448.163269,107.011665 448.069519,102.674049 448.241974,98.347588 
	C448.292358,97.083115 449.136292,95.850266 450.564606,94.552902 
M388.001068,125.288025 
	C390.222168,126.136726 392.443237,126.985420 395.150269,128.019806 
	C395.150269,113.969025 395.150269,101.206383 395.150269,88.324211 
	C392.752350,88.324211 390.636047,88.324211 387.997711,88.324211 
	C387.997711,100.429543 387.997711,112.378914 388.001068,125.288025 
M391.591797,79.558823 
	C393.392426,78.157211 396.030273,77.108109 396.802643,75.273567 
	C398.044403,72.324265 396.281128,69.759377 393.146790,68.803619 
	C389.846710,67.797340 387.520355,69.540031 386.613312,72.494385 
	C385.515015,76.071709 387.143951,78.552078 391.591797,79.558823 
z"/>
<path fill="#121212" opacity="1.000000" stroke="none" 
	d="
M184.997162,37.997540 
	C189.496262,37.997654 193.496643,37.955433 197.495789,38.006878 
	C205.349976,38.107910 209.816360,42.537407 209.842133,50.511215 
	C209.907333,70.676788 209.864380,90.842705 209.864624,111.008484 
	C209.864746,120.841385 209.896301,130.674423 209.855164,140.507141 
	C209.818390,149.290115 206.125549,153.001694 197.544128,153.001999 
	C166.378830,153.003098 135.213547,153.006592 104.048248,152.999084 
	C97.322990,152.997467 93.064812,149.087967 93.044395,142.308517 
	C92.951035,111.310188 92.945862,80.311218 93.047493,49.312943 
	C93.070541,42.284405 97.953354,38.020977 105.501434,38.011078 
	C131.833542,37.976551 158.165710,37.997608 184.997162,37.997540 
M162.260040,61.784790 
	C159.540817,59.977688 158.080780,60.628376 156.689758,63.723381 
	C154.899124,67.707535 151.659866,70.350998 146.882492,70.100861 
	C142.567322,69.874924 140.466049,67.271278 139.501343,63.271591 
	C139.281052,62.358326 138.083679,61.680737 138.353546,61.964470 
	C131.212936,64.575188 124.887802,66.711159 118.742302,69.277336 
	C117.447365,69.818062 115.814217,72.132515 116.042389,73.294914 
	C117.093353,78.648865 118.716690,83.893112 120.198654,89.158722 
	C120.992241,91.978416 122.810837,92.658455 125.561966,91.730858 
	C128.164352,90.853432 130.864609,90.266281 134.387131,89.318672 
	C133.675201,100.219215 133.014374,110.313759 132.357666,120.408569 
	C132.186310,123.042549 131.634979,125.727829 131.965363,128.298676 
	C132.355576,131.335205 133.886505,132.481186 137.186813,130.582855 
	C139.796738,129.081619 142.987656,127.926384 145.954071,127.845428 
	C152.380859,127.670036 158.829346,128.276382 165.268509,128.573013 
	C169.120880,128.750473 173.175781,129.996918 175.967407,127.086151 
	C171.088242,114.514565 171.363968,101.845047 170.424957,88.600113 
	C172.883148,89.349037 174.606018,89.546478 175.966736,90.354080 
	C179.177307,92.259583 180.530945,91.510765 181.454697,87.876228 
	C182.592972,83.397675 184.263535,79.023323 186.054489,74.750816 
	C187.713058,70.794106 186.342850,68.846405 182.539307,67.760857 
	C176.005295,65.896011 169.505539,63.911182 162.260040,61.784790 
z"/>
<path fill="#191919" opacity="1.000000" stroke="none" 
	d="
M552.989258,66.220901 
	C553.011169,86.673134 553.011169,106.645348 553.011169,126.902496 
	C550.866943,126.902496 548.952515,126.902496 546.670288,126.902496 
	C546.427063,125.758858 546.148560,124.449692 545.849426,123.043510 
	C535.760742,130.351898 524.460938,129.737869 517.458862,121.667282 
	C510.956268,114.172386 511.040894,100.836281 517.637146,93.583755 
	C524.834656,85.670128 535.971619,85.260094 546.236023,92.921707 
	C546.236023,87.981956 546.236023,83.397972 546.236023,78.813988 
	C546.236023,74.345284 546.236023,69.876579 546.236023,64.534012 
	C548.804565,64.994530 550.885925,65.367706 552.989258,66.220901 
M522.033081,100.982292 
	C521.649719,104.219101 520.747986,107.496231 520.995911,110.683945 
	C521.447754,116.492783 525.695251,120.238068 531.849060,121.117577 
	C537.862671,121.977058 542.347534,119.661552 544.879150,114.390335 
	C548.067261,107.752075 545.927856,99.365097 540.147888,95.842537 
	C534.099609,92.156433 527.576294,93.780365 522.033081,100.982292 
z"/>
<path fill="#1C1C1C" opacity="1.000000" stroke="none" 
	d="
M476.594177,117.038681 
	C484.218903,123.802162 489.080811,123.574730 498.465057,116.228477 
	C500.118958,117.493507 501.798645,118.778252 503.470917,120.057343 
	C497.391602,128.315735 485.727478,130.732529 476.476410,125.902267 
	C467.898376,121.423439 463.950012,110.385368 467.361542,100.420509 
	C470.361237,91.658562 480.155609,85.920357 489.646729,87.364319 
	C500.243500,88.976494 505.400482,96.300423 505.376801,110.308090 
	C495.201416,110.308090 484.996948,110.308090 473.726410,110.308090 
	C474.815613,113.041306 475.556366,114.900169 476.594177,117.038681 
M474.321991,102.827690 
	C474.602142,103.340752 474.877350,104.298729 475.163147,104.301926 
	C482.542480,104.384140 489.922913,104.366890 497.405762,104.366890 
	C497.259491,98.655968 495.051697,95.175316 490.155975,93.612877 
	C483.378204,91.449806 477.587494,94.610443 474.321991,102.827690 
z"/>
<path fill="#191919" opacity="1.000000" stroke="none" 
	d="
M241.961380,125.187134 
	C232.779099,117.960159 229.836639,107.781784 234.123581,99.011230 
	C238.301575,90.463524 248.354202,85.506920 257.509186,87.663071 
	C266.337006,89.742180 271.745728,95.473503 273.494843,104.233742 
	C275.101990,112.282837 272.411407,119.102135 265.686798,123.917175 
	C258.279114,129.221344 250.392395,129.826431 241.961380,125.187134 
M240.682358,111.556374 
	C243.138763,118.867050 248.133392,122.145721 255.346298,121.182388 
	C261.453766,120.366684 265.555115,115.532066 265.936890,108.698380 
	C266.334564,101.579979 262.495239,95.917648 256.215363,94.360794 
	C246.534576,91.960823 239.426376,99.362595 240.682358,111.556374 
z"/>
<path fill="#1A1A1A" opacity="1.000000" stroke="none" 
	d="
M283.165344,103.991936 
	C283.165375,98.537132 283.165375,93.578598 283.165375,88.402237 
	C285.901123,88.402237 288.131104,88.402237 290.838867,88.402237 
	C290.838867,96.117294 290.783508,103.577179 290.855530,111.035835 
	C290.918579,117.562782 293.787903,121.014404 299.202209,121.325272 
	C305.011841,121.658836 309.392029,118.204674 310.075226,112.011459 
	C310.639069,106.900536 310.472168,101.706879 310.582123,96.548874 
	C310.638489,93.905197 310.591980,91.259323 310.591980,88.383316 
	C313.113708,88.383316 315.221436,88.383316 317.680176,88.383316 
	C317.680176,101.169968 317.680176,114.058792 317.680176,127.058495 
	C315.418945,127.058495 313.287292,127.058495 310.957794,127.058495 
	C310.722168,125.696327 310.503265,124.430809 310.248871,122.960159 
	C309.704559,123.210632 309.221741,123.294380 308.948273,123.579155 
	C303.928101,128.807159 297.844177,129.363724 291.485931,127.036446 
	C285.101746,124.699677 283.333618,119.205147 283.180969,112.986671 
	C283.111481,110.155426 283.166718,107.321121 283.165344,103.991936 
z"/>
<path fill="#181818" opacity="1.000000" stroke="none" 
	d="
M381.090820,69.122513 
	C380.186707,69.836334 379.294220,70.493584 378.462433,70.424118 
	C373.117310,69.977745 370.967194,71.426163 370.466827,76.709129 
	C370.125031,80.318138 370.401428,83.985695 370.401428,87.887787 
	C373.249023,88.051971 376.012177,88.211288 378.933167,88.379700 
	C378.933167,90.418007 378.933167,92.203781 378.933167,94.301552 
	C376.079010,94.461067 373.330383,94.614685 370.161865,94.791779 
	C370.161865,105.619484 370.161865,116.195122 370.161865,126.972961 
	C367.634460,126.972961 365.542633,126.972961 362.987122,126.972961 
	C362.987122,116.400612 362.987122,105.834412 362.987122,94.770027 
	C360.000366,94.622643 357.437378,94.496162 354.469940,94.349724 
	C354.376587,92.416656 354.292297,90.670990 354.183289,88.413597 
	C357.007385,88.261833 359.590332,88.123024 362.849091,87.947891 
	C362.849091,85.003059 362.807465,82.077805 362.856323,79.154053 
	C363.067993,66.481621 368.347900,62.213627 381.460358,64.586754 
	C381.353424,65.929832 381.241974,67.329857 381.090820,69.122513 
z"/>
<path fill="#212121" opacity="1.000000" stroke="none" 
	d="
M333.696899,124.056061 
	C333.021027,116.626221 332.499786,109.536911 332.085358,102.441376 
	C331.941528,99.978828 332.062439,97.500816 332.062439,94.710052 
	C329.254028,94.710052 326.816010,94.710052 323.969421,94.710052 
	C323.969421,92.509995 323.969421,90.626930 323.969421,88.346680 
	C326.470398,88.213188 329.033722,88.076370 332.073639,87.914108 
	C332.073639,84.387962 332.073639,80.979660 332.073639,77.385933 
	C334.792236,77.385933 337.021332,77.385933 339.598877,77.385933 
	C339.598877,80.920212 339.598877,84.197655 339.598877,87.911438 
	C343.178589,87.911438 346.428406,87.911438 349.962891,87.911438 
	C349.962891,90.261200 349.962891,92.175346 349.962891,94.430565 
	C346.712189,94.430565 343.604309,94.430565 340.078125,94.430565 
	C340.078125,102.324753 339.825348,109.910332 340.307922,117.448830 
	C340.396240,118.828720 343.321045,120.415825 345.228119,121.159470 
	C346.593506,121.691887 348.445587,120.976036 350.063049,120.818817 
	C351.171112,127.497276 350.594971,128.588379 344.167694,128.040833 
	C340.664825,127.742424 337.313232,125.667732 333.696899,124.056061 
z"/>
<path fill="#212121" opacity="1.000000" stroke="none" 
	d="
M417.755066,111.823639 
	C418.055084,121.166458 418.576294,121.606972 427.939362,120.908020 
	C429.490814,127.261932 428.846100,128.111420 422.394135,128.214447 
	C413.502350,128.356430 410.288544,125.372009 410.116486,116.459373 
	C409.978973,109.334396 410.088715,102.204643 410.088715,94.746765 
	C407.294891,94.746765 404.862213,94.746765 401.997620,94.746765 
	C401.997620,92.543297 401.997620,90.665413 401.997620,88.307251 
	C404.441742,88.307251 406.998413,88.307251 410.034729,88.307251 
	C410.034729,84.442589 410.034729,81.037224 410.034729,77.380936 
	C412.747925,77.380936 414.977448,77.380936 417.547272,77.380936 
	C417.547272,80.846634 417.547272,84.129128 417.547272,87.843933 
	C421.116760,87.843933 424.365326,87.843933 427.938141,87.843933 
	C427.938141,90.183235 427.938141,92.092613 427.938141,94.512360 
	C424.689056,94.512360 421.459595,94.512360 417.754883,94.512360 
	C417.754883,100.455452 417.754883,105.901131 417.755066,111.823639 
z"/>
<path fill="#1A1A1A" opacity="1.000000" stroke="none" 
	d="
M450.090546,94.577911 
	C449.136292,95.850266 448.292358,97.083115 448.241974,98.347588 
	C448.069519,102.674049 448.163269,107.011665 448.178284,111.344940 
	C448.210632,120.694031 449.310516,121.701767 460.189636,120.746170 
	C458.825043,123.596573 458.316559,126.981522 456.669952,127.678810 
	C450.874664,130.132904 443.631256,127.579582 441.947632,122.999680 
	C441.166840,120.875641 440.951965,118.457024 440.909973,116.164093 
	C440.782196,109.188667 440.863647,102.209412 440.863647,94.874550 
	C437.818878,94.655022 435.088348,94.458153 432.305847,94.257530 
	C432.305847,92.198158 432.305847,90.420967 432.305847,88.358780 
	C435.107849,88.222687 437.713470,88.096123 440.815430,87.945457 
	C440.815430,84.408447 440.815430,80.998421 440.815430,77.369736 
	C443.401001,77.369736 445.483398,77.369736 448.096405,77.369736 
	C448.096405,80.865707 448.096405,84.274986 448.096405,88.078873 
	C451.876068,88.078873 455.137146,88.078873 458.739258,88.078873 
	C458.838409,90.235451 458.919098,91.990555 459.036896,94.552902 
	C456.048767,94.552902 453.306702,94.552902 450.090546,94.577911 
z"/>
<path fill="#131313" opacity="1.000000" stroke="none" 
	d="
M387.999390,124.808151 
	C387.997711,112.378914 387.997711,100.429543 387.997711,88.324211 
	C390.636047,88.324211 392.752350,88.324211 395.150269,88.324211 
	C395.150269,101.206383 395.150269,113.969025 395.150269,128.019806 
	C392.443237,126.985420 390.222168,126.136726 387.999390,124.808151 
z"/>
<path fill="#212121" opacity="1.000000" stroke="none" 
	d="
M391.221558,79.532211 
	C387.143951,78.552078 385.515015,76.071709 386.613312,72.494385 
	C387.520355,69.540031 389.846710,67.797340 393.146790,68.803619 
	C396.281128,69.759377 398.044403,72.324265 396.802643,75.273567 
	C396.030273,77.108109 393.392426,78.157211 391.221558,79.532211 
z"/>
<path fill="#F0F0F0" opacity="1.000000" stroke="none" 
	d="
M162.625717,61.880756 
	C169.505539,63.911182 176.005295,65.896011 182.539307,67.760857 
	C186.342850,68.846405 187.713058,70.794106 186.054489,74.750816 
	C184.263535,79.023323 182.592972,83.397675 181.454697,87.876228 
	C180.530945,91.510765 179.177307,92.259583 175.966736,90.354080 
	C174.606018,89.546478 172.883148,89.349037 170.424957,88.600113 
	C171.363968,101.845047 171.088242,114.514565 175.967407,127.086151 
	C173.175781,129.996918 169.120880,128.750473 165.268509,128.573013 
	C158.829346,128.276382 152.380859,127.670036 145.954071,127.845428 
	C142.987656,127.926384 139.796738,129.081619 137.186813,130.582855 
	C133.886505,132.481186 132.355576,131.335205 131.965363,128.298676 
	C131.634979,125.727829 132.186310,123.042549 132.357666,120.408569 
	C133.014374,110.313759 133.675201,100.219215 134.387131,89.318672 
	C130.864609,90.266281 128.164352,90.853432 125.561966,91.730858 
	C122.810837,92.658455 120.992241,91.978416 120.198654,89.158722 
	C118.716690,83.893112 117.093353,78.648865 116.042389,73.294914 
	C115.814217,72.132515 117.447365,69.818062 118.742302,69.277336 
	C124.887802,66.711159 131.212936,64.575188 138.353546,61.964470 
	C138.083679,61.680737 139.281052,62.358326 139.501343,63.271591 
	C140.466049,67.271278 142.567322,69.874924 146.882492,70.100861 
	C151.659866,70.350998 154.899124,67.707535 156.689758,63.723381 
	C158.080780,60.628376 159.540817,59.977688 162.625717,61.880756 
M157.163849,122.480759 
	C161.270050,122.716194 165.376251,122.951630 169.305878,123.176941 
	C168.090195,110.578156 166.911606,98.536308 165.788651,86.489265 
	C165.660156,85.110840 165.843094,83.703384 165.881653,82.309387 
	C167.387497,82.661194 168.999146,82.779922 170.380081,83.406876 
	C175.260300,85.622559 177.286530,84.819481 178.753693,79.833771 
	C181.001770,72.194344 180.999664,72.201256 173.200775,69.844055 
	C171.141037,69.221504 169.066513,68.627060 167.055069,67.870079 
	C163.307632,66.459785 160.820343,67.126274 158.303894,70.774483 
	C153.321609,77.997528 144.872910,77.697182 139.523865,70.665726 
	C138.839401,69.765999 138.110092,68.900398 137.449570,68.078720 
	C134.223175,69.535248 131.217361,70.914696 128.193314,72.252937 
	C120.620354,75.604233 119.736755,78.780022 124.623360,86.209221 
	C126.539558,85.480171 128.599472,84.860542 130.513809,83.938583 
	C137.384399,80.629662 139.198715,81.943764 139.065445,89.610023 
	C138.872986,100.679672 139.016220,111.755150 139.016220,122.419487 
	C144.322083,122.419487 150.276443,122.419487 157.163849,122.480759 
z"/>
<path fill="#F9F9F9" opacity="1.000000" stroke="none" 
	d="
M522.203674,100.624741 
	C527.576294,93.780365 534.099609,92.156433 540.147888,95.842537 
	C545.927856,99.365097 548.067261,107.752075 544.879150,114.390335 
	C542.347534,119.661552 537.862671,121.977058 531.849060,121.117577 
	C525.695251,120.238068 521.447754,116.492783 520.995911,110.683945 
	C520.747986,107.496231 521.649719,104.219101 522.203674,100.624741 
z"/>
<path fill="#EBEBEB" opacity="1.000000" stroke="none" 
	d="
M474.444733,102.465683 
	C477.587494,94.610443 483.378204,91.449806 490.155975,93.612877 
	C495.051697,95.175316 497.259491,98.655968 497.405762,104.366890 
	C489.922913,104.366890 482.542480,104.384140 475.163147,104.301926 
	C474.877350,104.298729 474.602142,103.340752 474.444733,102.465683 
z"/>
<path fill="#F8F8F8" opacity="1.000000" stroke="none" 
	d="
M240.557190,111.176208 
	C239.426376,99.362595 246.534576,91.960823 256.215363,94.360794 
	C262.495239,95.917648 266.334564,101.579979 265.936890,108.698380 
	C265.555115,115.532066 261.453766,120.366684 255.346298,121.182388 
	C248.133392,122.145721 243.138763,118.867050 240.557190,111.176208 
z"/>
<path fill="#141414" opacity="1.000000" stroke="none" 
	d="
M156.697327,122.450119 
	C150.276443,122.419487 144.322083,122.419487 139.016220,122.419487 
	C139.016220,111.755150 138.872986,100.679672 139.065445,89.610023 
	C139.198715,81.943764 137.384399,80.629662 130.513809,83.938583 
	C128.599472,84.860542 126.539558,85.480171 124.623360,86.209221 
	C119.736755,78.780022 120.620354,75.604233 128.193314,72.252937 
	C131.217361,70.914696 134.223175,69.535248 137.449570,68.078720 
	C138.110092,68.900398 138.839401,69.765999 139.523865,70.665726 
	C144.872910,77.697182 153.321609,77.997528 158.303894,70.774483 
	C160.820343,67.126274 163.307632,66.459785 167.055069,67.870079 
	C169.066513,68.627060 171.141037,69.221504 173.200775,69.844055 
	C180.999664,72.201256 181.001770,72.194344 178.753693,79.833771 
	C177.286530,84.819481 175.260300,85.622559 170.380081,83.406876 
	C168.999146,82.779922 167.387497,82.661194 165.881653,82.309387 
	C165.843094,83.703384 165.660156,85.110840 165.788651,86.489265 
	C166.911606,98.536308 168.090195,110.578156 169.305878,123.176941 
	C165.376251,122.951630 161.270050,122.716194 156.697327,122.450119 
z"/>
</svg>