<svg xmlns="http://www.w3.org/2000/svg" version="1.1" xmlns:xlink="http://www.w3.org/1999/xlink" xmlns:svgjs="http://svgjs.dev/svgjs" width="2000" height="606" viewBox="0 0 2000 606"><g transform="matrix(1,0,0,1,-1.2121212121212466,-0.9967609501717334)"><svg viewBox="0 0 396 120" data-background-color="#ffffff" preserveAspectRatio="xMidYMid meet" height="606" width="2000" xmlns="http://www.w3.org/2000/svg" xmlns:xlink="http://www.w3.org/1999/xlink"><g id="tight-bounds" transform="matrix(1,0,0,1,0.2400000000000091,0.19737840597460377)"><svg viewBox="0 0 395.52 119.60494535938992" height="119.60494535938992" width="395.52"><g><svg viewBox="0 0 619.0046545333776 187.18653388620714" height="119.60494535938992" width="395.52"><g transform="matrix(1,0,0,1,223.48465453337752,55.15424662001864)"><svg viewBox="0 0 395.52 76.87804064616986" height="76.87804064616986" width="395.52"><g id="textblocktransform"><svg viewBox="0 0 395.52 76.87804064616986" height="76.87804064616986" width="395.52" id="textblock"><g><svg viewBox="0 0 395.52 76.87804064616986" height="76.87804064616986" width="395.52"><g transform="matrix(1,0,0,1,0,0)"><svg width="395.52" viewBox="2.45 -36.5 192.38000000000002 37.300000000000004" height="76.87804064616986" data-palette-color="#111111"><path d="M36.85-18.45L36.85-18.45Q36.85-14.85 35.83-11.4 34.8-7.95 32.63-5.2 30.45-2.45 26.98-0.83 23.5 0.8 18.6 0.8L18.6 0.8Q12.95 0.8 9.38-1.3 5.8-3.4 4.13-7.13 2.45-10.85 2.45-15.7L2.45-15.7Q2.45-19.3 3.48-22.73 4.5-26.15 6.68-28.9 8.85-31.65 12.33-33.27 15.8-34.9 20.7-34.9L20.7-34.9Q26.4-34.9 29.95-32.83 33.5-30.75 35.18-27.05 36.85-23.35 36.85-18.45ZM31.6-15.6L31.6-15.6Q31.6-18.85 31.1-21.85 30.6-24.85 29.33-27.28 28.05-29.7 25.78-31.1 23.5-32.5 19.9-32.5L19.9-32.5Q16.85-32.5 14.73-31.38 12.6-30.25 11.23-28.48 9.85-26.7 9.08-24.65 8.3-22.6 8-20.7 7.7-18.8 7.7-17.5L7.7-17.5Q7.7-14.4 8.28-11.55 8.85-8.7 10.2-6.45 11.55-4.2 13.8-2.9 16.05-1.6 19.4-1.6L19.4-1.6Q22.15-1.6 24.23-2.58 26.3-3.55 27.7-5.15 29.1-6.75 29.98-8.63 30.85-10.5 31.23-12.33 31.6-14.15 31.6-15.6ZM62.2-4.25L62.2-4.25Q62.25-3.35 62.82-2.9 63.4-2.45 64.27-2.33 65.15-2.2 66-2.15L66-2.15 65.85-0.7Q64.5-0.6 63.1-0.33 61.7-0.05 60.4 0.2L60.4 0.2Q60.4 0.2 59.57-0.43 58.75-1.05 58.35-2.8L58.35-2.8Q56.35-1.45 53.75-0.5 51.15 0.45 48.65 0.45L48.65 0.45Q46.45 0.45 45-0.68 43.55-1.8 43.55-4.75L43.55-4.75 43.55-11.45Q43.55-15.1 43.47-16.88 43.4-18.65 43.3-19.23 43.2-19.8 43.2-19.8L43.2-19.8 40.25-20.75 40.15-22.05Q41.5-22.05 43.37-22.33 45.25-22.6 46.5-22.95L46.5-22.95 47.45-22.5Q47.45-22.5 47.42-21 47.4-19.5 47.37-17.03 47.35-14.55 47.32-11.68 47.3-8.8 47.3-6L47.3-6Q47.3-4.15 48.32-3.4 49.35-2.65 51.35-2.65L51.35-2.65Q53.2-2.65 55.12-3.35 57.05-4.05 58.1-4.75L58.1-4.75Q58.2-5.75 58.25-7.15 58.3-8.55 58.3-11.45L58.3-11.45Q58.3-15.1 58.2-16.88 58.1-18.65 58-19.23 57.9-19.8 57.9-19.8L57.9-19.8 54.75-20.75 54.65-22.05Q55.55-22.05 56.77-22.18 58-22.3 59.2-22.53 60.4-22.75 61.25-22.95L61.25-22.95 62.2-22.5Q62.2-22.5 62.12-19.55 62.05-16.6 62.05-10.1L62.05-10.1Q62.05-6.95 62.12-5.6 62.2-4.25 62.2-4.25ZM82.35-3.55L82.35-3.55 82.95-1.9Q81.25-0.8 79.7-0.18 78.15 0.45 76.55 0.45L76.55 0.45Q74.4 0.45 72.87-0.6 71.35-1.65 71.35-4.55L71.35-4.55Q71.35-4.55 71.37-5.78 71.4-7 71.4-8.78 71.4-10.55 71.4-12.15L71.4-12.15Q71.4-14.65 71.37-16.73 71.35-18.8 71.3-20.3L71.3-20.3Q69.8-20.25 68.95-20.25 68.1-20.25 68.1-20.25L68.1-20.25 67.95-20.8 69.1-22.75Q69.1-22.75 69.62-22.68 70.15-22.6 71.2-22.55L71.2-22.55Q71.2-23.55 71.15-24.63 71.1-25.7 71.05-26.43 71-27.15 71-27.15L71-27.15 74.3-30.1 75.25-29.65Q75.25-29.65 75.22-28.58 75.2-27.5 75.17-25.9 75.15-24.3 75.15-22.6L75.15-22.6Q78.55-22.6 80.52-22.63 82.5-22.65 82.5-22.65L82.5-22.65 82.75-22.05 80.95-20.05Q80.95-20.05 79.6-20.15 78.25-20.25 75.15-20.3L75.15-20.3 75.15-13.6Q75.15-10.6 75.17-8.65 75.2-6.7 75.3-4.65L75.3-4.65Q75.4-3.4 76.15-2.9 76.9-2.4 77.95-2.4L77.95-2.4Q79.1-2.4 80.32-2.8 81.55-3.2 82.35-3.55ZM92.49-2.4L92.49-2.4Q92.54-2.15 93.27-1.9 93.99-1.65 94.89-1.5 95.79-1.35 96.29-1.3L96.29-1.3 96.14 0.15Q94.94 0.05 93.07 0.03 91.19 0 89.89 0L89.89 0Q88.64 0 87.07 0.03 85.49 0.05 84.29 0.15L84.29 0.15 84.44-1.3Q84.99-1.35 85.77-1.5 86.54-1.65 87.17-1.9 87.79-2.15 87.84-2.4L87.84-2.4Q87.84-2.4 87.92-3.2 87.99-4 88.07-5.98 88.14-7.95 88.19-11.45 88.24-14.95 88.24-20.3L88.24-20.3Q86.59-20.25 85.69-20.25 84.79-20.25 84.79-20.25L84.79-20.25 84.64-20.8 85.79-22.75Q85.79-22.75 86.37-22.7 86.94-22.65 88.19-22.55L88.19-22.55Q88.19-26 89.29-28.45 90.39-30.9 92.04-32.48 93.69-34.05 95.42-34.93 97.14-35.8 98.49-36.15 99.84-36.5 100.24-36.5L100.24-36.5Q100.49-36.5 101.02-35.98 101.54-35.45 102.07-34.65 102.59-33.85 102.79-33L102.79-33 102.04-32.05Q101.39-32.35 100.22-32.68 99.04-33 97.74-33L97.74-33Q96.34-33 95.02-32.23 93.69-31.45 92.84-29.23 91.99-27 91.99-22.6L91.99-22.6Q95.09-22.6 96.79-22.63 98.49-22.65 98.49-22.65L98.49-22.65 98.74-22.05 97.19-20.1Q97.19-20.1 95.92-20.18 94.64-20.25 91.99-20.3L91.99-20.3Q91.99-15.05 92.07-11.63 92.14-8.2 92.22-6.23 92.29-4.25 92.39-3.4 92.49-2.55 92.49-2.4ZM106.99-22.95L106.99-22.95 107.94-22.5Q107.94-21.85 107.92-20.5 107.89-19.15 107.89-17.53 107.89-15.9 107.87-14.28 107.84-12.65 107.84-11.45L107.84-11.45Q107.84-7.8 107.97-5.85 108.09-3.9 108.22-3.15 108.34-2.4 108.34-2.4L108.34-2.4Q108.39-2.15 109.07-1.9 109.74-1.65 110.57-1.5 111.39-1.35 111.89-1.3L111.89-1.3 111.74 0.15Q110.54 0.05 108.92 0.03 107.29 0 105.99 0L105.99 0Q104.74 0 102.99 0.03 101.24 0.05 100.04 0.15L100.04 0.15 100.19-1.3Q100.74-1.35 101.54-1.5 102.34-1.65 102.99-1.9 103.64-2.15 103.69-2.4L103.69-2.4Q103.69-2.4 103.79-3.15 103.89-3.9 103.99-5.85 104.09-7.8 104.09-11.45L104.09-11.45Q104.09-15.1 103.99-16.88 103.89-18.65 103.79-19.23 103.69-19.8 103.69-19.8L103.69-19.8 100.49-20.75 100.39-22.05Q101.29-22.05 102.52-22.18 103.74-22.3 104.94-22.53 106.14-22.75 106.99-22.95ZM105.84-28.15L105.84-28.15Q104.74-28.15 103.99-28.93 103.24-29.7 103.24-30.85L103.24-30.85Q103.24-31.95 103.99-32.7 104.74-33.45 105.84-33.45L105.84-33.45Q106.94-33.45 107.69-32.7 108.44-31.95 108.44-30.85L108.44-30.85Q108.44-29.7 107.69-28.93 106.94-28.15 105.84-28.15ZM128.24-3.55L128.24-3.55 128.84-1.9Q127.14-0.8 125.59-0.18 124.04 0.45 122.44 0.45L122.44 0.45Q120.29 0.45 118.76-0.6 117.24-1.65 117.24-4.55L117.24-4.55Q117.24-4.55 117.26-5.78 117.29-7 117.29-8.78 117.29-10.55 117.29-12.15L117.29-12.15Q117.29-14.65 117.26-16.73 117.24-18.8 117.19-20.3L117.19-20.3Q115.69-20.25 114.84-20.25 113.99-20.25 113.99-20.25L113.99-20.25 113.84-20.8 114.99-22.75Q114.99-22.75 115.51-22.68 116.04-22.6 117.09-22.55L117.09-22.55Q117.09-23.55 117.04-24.63 116.99-25.7 116.94-26.43 116.89-27.15 116.89-27.15L116.89-27.15 120.19-30.1 121.14-29.65Q121.14-29.65 121.11-28.58 121.09-27.5 121.06-25.9 121.04-24.3 121.04-22.6L121.04-22.6Q124.44-22.6 126.41-22.63 128.39-22.65 128.39-22.65L128.39-22.65 128.64-22.05 126.84-20.05Q126.84-20.05 125.49-20.15 124.14-20.25 121.04-20.3L121.04-20.3 121.04-13.6Q121.04-10.6 121.06-8.65 121.09-6.7 121.19-4.65L121.19-4.65Q121.29-3.4 122.04-2.9 122.79-2.4 123.84-2.4L123.84-2.4Q124.99-2.4 126.21-2.8 127.44-3.2 128.24-3.55ZM144.59-3.55L144.59-3.55 145.19-1.9Q143.49-0.8 141.94-0.18 140.39 0.45 138.79 0.45L138.79 0.45Q136.64 0.45 135.11-0.6 133.59-1.65 133.59-4.55L133.59-4.55Q133.59-4.55 133.61-5.78 133.64-7 133.64-8.78 133.64-10.55 133.64-12.15L133.64-12.15Q133.64-14.65 133.61-16.73 133.59-18.8 133.54-20.3L133.54-20.3Q132.04-20.25 131.19-20.25 130.34-20.25 130.34-20.25L130.34-20.25 130.19-20.8 131.34-22.75Q131.34-22.75 131.86-22.68 132.39-22.6 133.44-22.55L133.44-22.55Q133.44-23.55 133.39-24.63 133.34-25.7 133.29-26.43 133.24-27.15 133.24-27.15L133.24-27.15 136.54-30.1 137.49-29.65Q137.49-29.65 137.46-28.58 137.44-27.5 137.41-25.9 137.39-24.3 137.39-22.6L137.39-22.6Q140.79-22.6 142.76-22.63 144.74-22.65 144.74-22.65L144.74-22.65 144.99-22.05 143.19-20.05Q143.19-20.05 141.84-20.15 140.49-20.25 137.39-20.3L137.39-20.3 137.39-13.6Q137.39-10.6 137.41-8.65 137.44-6.7 137.54-4.65L137.54-4.65Q137.64-3.4 138.39-2.9 139.14-2.4 140.19-2.4L140.19-2.4Q141.34-2.4 142.56-2.8 143.79-3.2 144.59-3.55ZM165.53-4.15L165.53-4.15 166.13-2.65Q164.58-1.4 162.51-0.48 160.43 0.45 157.93 0.45L157.93 0.45Q154.23 0.45 151.86-1.03 149.48-2.5 148.36-4.95 147.23-7.4 147.23-10.35L147.23-10.35Q147.23-12.75 147.91-15 148.58-17.25 149.98-19.05 151.38-20.85 153.68-21.93 155.98-23 159.18-23L159.18-23Q160.98-23 162.73-22.15 164.48-21.3 165.63-19.43 166.78-17.55 166.78-14.45L166.78-14.45 165.08-12.4Q164.88-12.45 164.41-12.45 163.93-12.45 163.23-12.45L163.23-12.45Q161.98-12.45 160.28-12.43 158.58-12.4 156.83-12.35 155.08-12.3 153.63-12.23 152.18-12.15 151.48-12.1L151.48-12.1 151.48-11.65Q151.48-6.95 153.46-4.75 155.43-2.55 158.58-2.55L158.58-2.55Q160.43-2.55 162.08-2.95 163.73-3.35 165.53-4.15ZM162.28-16L162.28-16Q162.28-17.7 161.61-18.68 160.93-19.65 159.96-20.1 158.98-20.55 158.08-20.55L158.08-20.55Q155.63-20.55 153.98-18.63 152.33-16.7 151.78-14.15L151.78-14.15 162.13-14.55Q162.28-15.3 162.28-16ZM187.18-2.8L187.18-2.8Q185.43-1.15 183.41-0.35 181.38 0.45 179.48 0.45L179.48 0.45Q176.98 0.45 174.88-0.83 172.78-2.1 171.53-4.63 170.28-7.15 170.28-10.85L170.28-10.85Q170.28-14.85 171.78-17.55 173.28-20.25 175.76-21.65 178.23-23.05 181.13-23.05L181.13-23.05Q182.73-23.05 184.08-22.68 185.43-22.3 187.13-21.3L187.13-21.3Q187.13-25.2 187.06-27.6 186.98-30 186.91-31.23 186.83-32.45 186.78-32.9 186.73-33.35 186.73-33.35L186.73-33.35 183.53-34.3 183.43-35.6Q184.33-35.6 185.56-35.73 186.78-35.85 187.98-36.08 189.18-36.3 190.03-36.5L190.03-36.5 190.98-36.05Q190.98-36.05 190.93-31.4 190.88-26.75 190.88-17.6L190.88-17.6Q190.88-11.55 190.93-8.55 190.98-5.55 191.03-4.25L191.03-4.25Q191.08-3.35 191.68-2.9 192.28-2.45 193.13-2.33 193.98-2.2 194.83-2.15L194.83-2.15 194.68-0.7Q193.33-0.6 191.93-0.33 190.53-0.05 189.23 0.2L189.23 0.2Q189.23 0.2 188.41-0.43 187.58-1.05 187.18-2.8ZM187.13-19.1L187.13-19.1Q185.83-19.55 184.71-19.78 183.58-20 182.43-20L182.43-20Q179.63-20 177.93-18.7 176.23-17.4 175.48-15.35 174.73-13.3 174.73-10.95L174.73-10.95Q174.73-7.45 176.31-5.08 177.88-2.7 181.23-2.7L181.23-2.7Q182.98-2.7 184.53-3.4 186.08-4.1 186.88-4.7L186.88-4.7Q186.93-5.5 186.98-7.68 187.03-9.85 187.08-12.85 187.13-15.85 187.13-19.1Z" opacity="1" transform="matrix(1,0,0,1,0,0)" fill="#111111" class="wordmark-text-0" data-fill-palette-color="primary" id="text-0"></path></svg></g></svg></g></svg></g></svg></g><g><svg viewBox="0 0 187.18653388620714 187.18653388620714" height="187.18653388620714" width="187.18653388620714"><g><svg></svg></g><g id="icon-0"><svg viewBox="0 0 187.18653388620714 187.18653388620714" height="187.18653388620714" width="187.18653388620714"><g><path d="M0 93.593c0-51.69 41.903-93.593 93.593-93.593 51.69 0 93.593 41.903 93.594 93.593 0 51.69-41.903 93.593-93.594 93.594-51.69 0-93.593-41.903-93.593-93.594zM93.593 180.254c47.861 0 86.66-38.799 86.661-86.661 0-47.861-38.799-86.66-86.661-86.66-47.861 0-86.66 38.799-86.66 86.66 0 47.861 38.799 86.66 86.66 86.661z" data-fill-palette-color="accent" fill="#111111" stroke="transparent"></path></g><g transform="matrix(1,0,0,1,39.4310156276953,60.819080258851)"><svg viewBox="0 0 108.32450263081654 65.54837336850514" height="65.54837336850514" width="108.32450263081654"><g><svg xmlns="http://www.w3.org/2000/svg" xmlns:xlink="http://www.w3.org/1999/xlink" version="1.1" x="0" y="0" viewBox="0.001507172750698664 0 156.99592867200175 95" enable-background="new 0 0 157 95" xml:space="preserve" height="65.54837336850514" width="108.32450263081654" class="icon-cg-0" data-fill-palette-color="accent" id="cg-0"><g fill="#111111" data-fill-palette-color="accent"><path d="M155.8 79.9c-0.9-1.2-23.4-28.7-72.4-45v-4.7c0-5.7 11.1-7.2 11.1-17.7C94.6 4.3 86.9 0 79.8 0c-8.6 0-13.3 5.3-13.3 5.3-1.2 1.2-2.6 4.1-0.7 6.9 2 2.8 5.8 1.5 6.8 0.6 0 0 3-2.7 6.1-2.7 2.4 0 4.6 1.6 4.6 3.8 0 5.4-9.9 6.9-9.9 15.5v5.6C24.4 51.2 2 78.7 1.1 79.9c-0.9 1.1-1.3 2.6-1 4 0.3 1.4 1.2 2.6 2.5 3.3C13.2 93 51.1 95 80.2 95c13.6 0 59-0.5 74.1-7.6 1.4-0.6 2.2-1.9 2.6-3.3C157.2 82.7 156.8 81.1 155.8 79.9zM80.2 85.2c-28 0-53.9-1.8-66.5-4.5 8.9-8.7 30-26.1 64.8-37.1 34.8 11.1 55.8 28.4 64.8 37.1C130.9 83.5 107.6 85.2 80.2 85.2z" fill="#111111" data-fill-palette-color="accent"></path></g></svg></g></svg></g></svg></g></svg></g></svg></g><defs></defs></svg><rect width="395.52" height="119.60494535938992" fill="none" stroke="none" visibility="hidden"></rect></g></svg></g></svg>